<?xml version="1.0" encoding="UTF-8" standalone="no"?>
<!-- Created with Inkscape (http://www.inkscape.org/) -->

<svg
   xmlns:dc="http://purl.org/dc/elements/1.1/"
   xmlns:cc="http://creativecommons.org/ns#"
   xmlns:rdf="http://www.w3.org/1999/02/22-rdf-syntax-ns#"
   xmlns:svg="http://www.w3.org/2000/svg"
   xmlns="http://www.w3.org/2000/svg"
   xmlns:sodipodi="http://sodipodi.sourceforge.net/DTD/sodipodi-0.dtd"
   xmlns:inkscape="http://www.inkscape.org/namespaces/inkscape"
   version="1.1"
   id="svg2"
   xml:space="preserve"
   width="271.13333"
   height="64.373337"
   viewBox="0 0 271.13333 64.373337"
   sodipodi:docname="UHasselt-liggend.svg"
   inkscape:version="0.92.2 2405546, 2018-03-11"><metadata
     id="metadata8"><rdf:RDF><cc:Work
         rdf:about=""><dc:format>image/svg+xml</dc:format><dc:type
           rdf:resource="http://purl.org/dc/dcmitype/StillImage" /><dc:title></dc:title></cc:Work></rdf:RDF></metadata><defs
     id="defs6" /><sodipodi:namedview
     pagecolor="#ffffff"
     bordercolor="#666666"
     borderopacity="1"
     objecttolerance="10"
     gridtolerance="10"
     guidetolerance="10"
     inkscape:pageopacity="0"
     inkscape:pageshadow="2"
     inkscape:window-width="956"
     inkscape:window-height="1036"
     id="namedview4"
     showgrid="false"
     inkscape:zoom="5.6568542"
     inkscape:cx="45.386407"
     inkscape:cy="32.186668"
     inkscape:window-x="960"
     inkscape:window-y="20"
     inkscape:window-maximized="0"
     inkscape:current-layer="g12" /><g
     id="g10"
     inkscape:groupmode="layer"
     inkscape:label="ink_ext_XXXXXX"
     transform="matrix(1.3333333,0,0,-1.3333333,0,64.373333)"><g
       id="g12"
       transform="scale(0.1)"><path
         d="M 754.215,336.969 V 224.52 c 0,-25.719 -1.063,-51.18 -20.949,-70.54 -16.707,-16.441 -42.961,-22.277 -66.297,-22.277 -23.34,0 -49.598,5.836 -66.305,22.277 -19.887,19.36 -20.945,44.821 -20.945,70.54 v 112.449 h 51.976 V 231.684 c 0,-25.993 1.856,-54.364 35.274,-54.364 33.414,0 35.265,28.371 35.265,54.364 v 105.285 h 51.981"
         style="fill:#1b1b1b;fill-opacity:1;fill-rule:nonzero;stroke:none"
         id="path14"
         inkscape:connector-curvature="0" /><path
         d="m 914.078,259.797 v 77.172 h 51.981 V 137.008 h -51.981 v 81.945 h -75.051 v -81.945 h -51.976 v 199.961 h 51.976 v -77.172 h 75.051"
         style="fill:#1b1b1b;fill-opacity:1;fill-rule:nonzero;stroke:none"
         id="path16"
         inkscape:connector-curvature="0" /><path
         d="m 1087.2,275.176 h -0.53 l -21.48,-63.649 h 43.23 z m -36.33,-103.43 -13.79,-34.738 h -55.162 l 76.912,199.961 h 56.75 l 75.31,-199.961 h -55.42 l -12.99,34.738 h -71.61"
         style="fill:#1b1b1b;fill-opacity:1;fill-rule:nonzero;stroke:none"
         id="path18"
         inkscape:connector-curvature="0" /><path
         d="m 1316.82,285.516 c -9.55,7.957 -21.75,13.261 -34.48,13.261 -9.54,0 -22.28,-5.57 -22.28,-16.707 0,-11.672 14.07,-16.175 23.08,-19.097 L 1296.4,259 c 27.84,-8.223 49.33,-22.277 49.33,-54.637 0,-19.886 -4.78,-40.304 -20.69,-53.832 -15.65,-13.261 -36.6,-18.828 -56.75,-18.828 -25.2,0 -49.86,8.488 -70.28,22.809 l 22.28,41.898 c 12.99,-11.398 28.38,-20.683 46.14,-20.683 12.2,0 25.2,6.097 25.2,20.152 0,14.59 -20.42,19.625 -31.57,22.809 -32.61,9.281 -54.1,17.765 -54.1,56.488 0,40.578 28.91,67.094 68.96,67.094 20.15,0 44.81,-6.368 62.58,-16.446 l -20.68,-40.308"
         style="fill:#1b1b1b;fill-opacity:1;fill-rule:nonzero;stroke:none"
         id="path20"
         inkscape:connector-curvature="0" /><path
         d="m 1480.14,285.516 c -9.55,7.957 -21.75,13.261 -34.48,13.261 -9.54,0 -22.28,-5.57 -22.28,-16.707 0,-11.672 14.07,-16.175 23.08,-19.097 L 1459.72,259 c 27.84,-8.223 49.33,-22.277 49.33,-54.637 0,-19.886 -4.78,-40.304 -20.69,-53.832 -15.65,-13.261 -36.6,-18.828 -56.75,-18.828 -25.2,0 -49.86,8.488 -70.28,22.809 l 22.28,41.898 c 12.99,-11.398 28.38,-20.683 46.14,-20.683 12.2,0 25.2,6.097 25.2,20.152 0,14.59 -20.42,19.625 -31.57,22.809 -32.61,9.281 -54.1,17.765 -54.1,56.488 0,40.578 28.91,67.094 68.96,67.094 20.15,0 44.81,-6.368 62.59,-16.446 l -20.69,-40.308"
         style="fill:#1b1b1b;fill-opacity:1;fill-rule:nonzero;stroke:none"
         id="path22"
         inkscape:connector-curvature="0" /><path
         d="m 1585.65,292.945 v -33.418 h 58.6 v -44.023 h -58.6 v -34.473 h 61.79 v -44.023 h -113.77 v 199.961 h 113.77 v -44.024 h -61.79"
         style="fill:#1b1b1b;fill-opacity:1;fill-rule:nonzero;stroke:none"
         id="path24"
         inkscape:connector-curvature="0" /><path
         d="m 1731.47,181.031 h 62.31 v -44.023 h -114.29 v 199.961 h 51.98 V 181.031"
         style="fill:#1b1b1b;fill-opacity:1;fill-rule:nonzero;stroke:none"
         id="path26"
         inkscape:connector-curvature="0" /><path
         d="m 1890.29,137.008 h -51.98 v 155.937 h -42.96 v 44.024 h 137.9 v -44.024 h -42.96 V 137.008"
         style="fill:#1b1b1b;fill-opacity:1;fill-rule:nonzero;stroke:none"
         id="path28"
         inkscape:connector-curvature="0" /><path
         d="M 511.625,40.6172 H 1992.91 V 442.227 H 511.625 Z M 2033.54,0 H 471.023 V 482.844 H 2033.54 V 0"
         style="fill:#1b1b1b;fill-opacity:1;fill-rule:nonzero;stroke:none"
         id="path30"
         inkscape:connector-curvature="0" /><path
         d="M 127.879,309.695 252.426,232.551 127.879,155.395 Z"
         style="fill:#1b1b1b;fill-opacity:1;fill-rule:nonzero;stroke:none"
         id="path34"
         inkscape:connector-curvature="0" /><path
         d="M 280.039,309.695 404.586,232.551 280.039,155.395 Z"
         style="fill:#1b1b1b;fill-opacity:1;fill-rule:nonzero;stroke:none"
         id="path36"
         inkscape:connector-curvature="0" /><rect
         id="rect3742"
         width="475.15164"
         height="44.094002"
         x="-0.15116389"
         y="-482.84399"
         transform="scale(1,-1)"
         style="stroke-width:7.13506126" /><rect
         id="rect3742-3"
         width="472.5"
         height="44.094002"
         x="-0.15116382"
         y="-44.093994"
         style="stroke-width:7.11512423"
         transform="scale(1,-1)" /><rect
         id="rect3742-6"
         width="39.268555"
         height="395.43768"
         x="-39.11739"
         y="-438.75"
         style="stroke-width:6.14261532"
         transform="scale(-1)" /><path
         style="fill:#000000;fill-opacity:1;stroke-width:0.17677669"
         d="M -0.00984866,32.204346 V 5.9530068 H 2.5534134 5.1166755 V 32.204346 58.455685 H 2.5534134 -0.00984866 Z"
         id="path3765"
         inkscape:connector-curvature="0"
         transform="matrix(7.5000002,0,0,-7.5000002,0,482.80001)" /><path
         style="fill:#000000;fill-opacity:1;stroke-width:0.17677669"
         d="M -0.00984866,32.204346 V 5.9530068 H 2.5534134 5.1166755 V 32.204346 58.455685 H 2.5534134 -0.00984866 Z"
         id="path3767"
         inkscape:connector-curvature="0"
         transform="matrix(7.5000002,0,0,-7.5000002,0,482.80001)" /><path
         style="fill:#1b1b1b;fill-opacity:1;stroke-width:0.17677669"
         d="M -0.00984866,32.204346 V 5.9530068 H 2.5534134 5.1166755 V 32.204346 58.455685 H 2.5534134 -0.00984866 Z"
         id="path3769"
         inkscape:connector-curvature="0"
         transform="matrix(7.5000002,0,0,-7.5000002,0,482.80001)" /><path
         style="fill:#1b1b1b;fill-opacity:1;stroke-width:0.17677669"
         d="M -0.00984866,32.204346 V 5.9530068 H 2.5534134 5.1166755 V 32.204346 58.455685 H 2.5534134 -0.00984866 Z"
         id="path3771"
         inkscape:connector-curvature="0"
         transform="matrix(7.5000002,0,0,-7.5000002,0,482.80001)" /><path
         style="fill:#1b1b1b;fill-opacity:1;stroke-width:0.17677669"
         d="M -0.00984866,61.460889 V 58.632462 H 31.456403 62.922655 v 2.828427 2.828427 H 31.456403 -0.00984866 Z"
         id="path3773"
         inkscape:connector-curvature="0"
         transform="matrix(7.5000002,0,0,-7.5000002,0,482.80001)" /><path
         style="fill:#1b1b1b;fill-opacity:1;stroke-width:0.17677669"
         d="M -0.00984866,2.947803 V 0.11937584 H 31.63318 63.276208 V 2.947803 5.7762301 H 31.63318 -0.00984866 Z"
         id="path3775"
         inkscape:connector-curvature="0"
         transform="matrix(7.5000002,0,0,-7.5000002,0,482.80001)" /></g></g></svg>